HIERARCHY
ROOT hip
{
	OFFSET 0.000000 0.000000 0.000000 
	CHANNELS 6 Xposition Yposition Zposition Xrotation Zrotation Yrotation
	JOINT abdomen
	{
		OFFSET 0.000000 3.402643 0.000000 
		CHANNELS 3 Xrotation Zrotation Yrotation
		JOINT chest
		{
			OFFSET 0.000000 8.438565 -0.680529 
			CHANNELS 3 Xrotation Zrotation Yrotation
			JOINT neck
			{
				OFFSET 0.000000 10.207942 -0.272212 
				CHANNELS 3 Xrotation Zrotation Yrotation
				JOINT head
				{
					OFFSET 0.000000 3.130431 0.000000 
					CHANNELS 3 Xrotation Zrotation Yrotation
					End Site
					{
						OFFSET 0.000000 3.130435 0.000000 
					}
				}
			}
			JOINT lCollar
			{
				OFFSET 3.470700 6.669187 -0.816635 
				CHANNELS 3 Yrotation Zrotation Xrotation
				JOINT lShldr
				{
					OFFSET 3.198488 0.000000 0.000000 
					CHANNELS 3 Zrotation Yrotation Xrotation
					JOINT lForeArm
					{
						OFFSET 10.139888 0.000000 0.000000 
						CHANNELS 3 Yrotation Zrotation Xrotation
						JOINT lHand
						{
							OFFSET 8.370511 0.000000 0.000000 
							CHANNELS 3 Zrotation Yrotation Xrotation
							End Site
							{
								OFFSET 4.083176 0.000000 0.000000 
							}
						}
					}
				}
			}
			JOINT rCollar
			{
				OFFSET -3.470700 6.669187 -0.816635 
				CHANNELS 3 Yrotation Zrotation Xrotation
				JOINT rShldr
				{
					OFFSET -3.198488 0.000000 0.000000 
					CHANNELS 3 Zrotation Yrotation Xrotation
					JOINT rForeArm
					{
						OFFSET -10.139888 0.000000 0.000000 
						CHANNELS 3 Yrotation Zrotation Xrotation
						JOINT rHand
						{
							OFFSET -8.370511 0.000000 0.000000 
							CHANNELS 3 Zrotation Yrotation Xrotation
							End Site
							{
								OFFSET -4.083176 0.000000 0.000000 
							}
						}
					}
				}
			}
		}
	}
	JOINT lThigh
	{
		OFFSET 5.308129 -1.633274 1.361059 
		CHANNELS 3 Xrotation Zrotation Yrotation
		JOINT lShin
		{
			OFFSET -2.041588 -20.007561 0.000000 
			CHANNELS 3 Xrotation Zrotation Yrotation
			JOINT lFoot
			{
				OFFSET 0.000000 -19.190928 -1.224953 
				CHANNELS 3 Xrotation Yrotation Zrotation
				End Site
				{
					OFFSET 0.000000 -2.449906 4.627600 
				}
			}
		}
	}
	JOINT rThigh
	{
		OFFSET -5.308129 -1.633274 1.361059 
		CHANNELS 3 Xrotation Zrotation Yrotation
		JOINT rShin
		{
			OFFSET 2.041588 -20.007561 0.000000 
			CHANNELS 3 Xrotation Zrotation Yrotation
			JOINT rFoot
			{
				OFFSET 0.000000 -19.190928 -1.224953 
				CHANNELS 3 Xrotation Yrotation Zrotation
				End Site
				{
					OFFSET 0.000000 -2.449906 4.627600 
				}
			}
		}
	}
}
MOTION
Frames: 11
Frame Time: 0.033333
11.714162 6.998041 -47.010170 20.544689 -115.657906 -87.769501 0.000000 0.000000 0.000000 22.419388 10.664178 -4.276267 -8.603516 0.000000 0.000000 35.404419 6.894554 -17.495932 -2.957607 -0.090307 -0.002318 26.269798 -26.092722 -129.358398 -2.723461 -14.099504 25.969152 19.426929 -19.005087 21.959307 2.957607 0.090307 -0.002334 -33.074432 -18.911625 -65.151779 18.364609 15.457860 20.074318 -33.392643 32.643803 37.913567 -58.949055 19.098997 6.140391 29.024910 -7.319077 -0.234391 -10.495116 -6.411015 -13.315459 -43.095459 -56.773216 -20.534060 29.530262 12.216336 5.942903 -4.395741 8.784225 27.546371 
11.733990 6.935495 -46.998726 22.409960 -113.877052 -89.900757 0.000000 0.000000 0.000000 20.908133 9.848193 -4.171695 -8.603516 0.000000 0.000000 35.812061 7.977715 -18.495646 -2.957607 -0.090307 -0.002318 25.081978 -27.123894 -125.718323 -2.679972 -12.671582 26.946571 22.123041 -18.995214 20.095469 2.957607 0.090307 -0.002334 -35.266907 -20.564831 -63.581711 17.086754 15.811171 19.578707 -36.294579 33.590778 37.356121 -58.378120 19.169868 5.171222 30.099520 -6.860526 -0.333179 -10.739920 -6.225706 -12.787765 -42.490025 -56.762798 -21.530418 30.495029 12.411036 6.314277 -4.438597 8.316258 27.155411 
11.679944 6.833070 -46.981731 24.185972 -112.253433 -92.281532 0.000000 0.000000 0.000000 19.479084 9.022600 -3.797196 -8.603516 0.000000 0.000000 36.195084 9.082369 -19.716721 -2.957607 -0.090307 -0.002318 23.722893 -27.718824 -122.035370 -2.799293 -11.340563 27.548773 24.896135 -19.102148 18.714094 2.957607 0.090307 -0.002334 -36.281380 -22.347200 -61.545147 16.240528 16.206955 18.375298 -38.065361 34.375172 36.283657 -57.143463 19.665966 4.343831 31.295927 -6.412677 -0.437864 -10.552428 -5.826701 -12.047855 -40.566223 -56.340855 -22.995676 31.316763 12.567799 6.559800 -4.423025 7.895554 26.836143 
11.682776 6.850068 -47.015839 25.904339 -110.590240 -94.706100 0.000000 0.000000 0.000000 17.956848 8.274047 -3.403643 -8.603516 0.000000 0.000000 36.967686 10.049392 -20.740280 -2.957607 -0.090307 -0.002318 22.140202 -27.942011 -118.063835 -2.970393 -10.129355 27.938574 27.670580 -19.361521 17.124727 2.957607 0.090307 -0.002334 -36.236374 -22.254152 -59.051582 15.697904 15.469492 17.089565 -37.628075 34.284203 34.946419 -55.353634 20.397127 3.358131 32.432690 -6.148171 -0.403870 -10.350224 -4.901057 -11.279495 -38.105316 -55.600388 -24.566326 32.264786 12.728225 6.800310 -4.628860 7.609879 26.585363 
11.643007 6.773248 -46.995895 27.800045 -108.992950 -97.574738 0.000000 0.000000 0.000000 16.475039 7.551742 -2.782770 -8.603516 0.000000 0.000000 37.707344 10.850471 -21.760361 -2.957607 -0.090307 -0.002318 20.750200 -27.934313 -114.796463 -3.217920 -9.358400 27.532106 30.100086 -19.655075 16.050951 2.957607 0.090307 -0.002334 -35.967186 -22.726255 -55.833176 15.387178 15.040939 15.247931 -37.310219 33.790600 32.946739 -53.203442 21.391975 2.654217 33.874813 -5.919630 -0.393529 -9.997319 -3.757578 -10.464825 -34.951355 -54.686142 -26.100840 33.251537 12.862399 7.091635 -5.058880 7.319790 26.460127 
11.648672 6.778913 -47.021500 30.332132 -107.290947 -101.064941 0.000000 0.000000 0.000000 14.883598 6.835383 -2.239916 -8.603516 0.000000 0.000000 38.813351 11.341269 -22.148756 -2.957607 -0.090307 -0.002318 19.473267 -27.761391 -111.478188 -3.698505 -8.849850 27.017334 32.174759 -20.396870 14.865056 2.957607 0.090307 -0.002334 -34.950882 -21.929937 -52.604759 14.902479 14.034614 13.828314 -36.801914 33.106808 30.969234 -50.437740 22.479622 2.152587 35.048283 -5.898768 -0.239858 -9.392624 -2.459485 -9.700356 -31.533955 -53.689892 -27.637300 33.825031 13.135097 7.204113 -5.204148 7.174838 26.233053 
11.648672 6.784577 -47.038612 33.535355 -105.547676 -105.390564 0.000000 0.000000 0.000000 13.221808 6.142661 -1.577339 -8.603516 0.000000 0.000000 40.020565 11.372296 -22.320007 -2.957607 -0.090307 -0.002318 18.257954 -27.684088 -108.591385 -4.218609 -8.718779 26.806433 45.603416 -4.493737 5.413141 2.957607 0.090307 -0.002334 -33.200939 -20.168430 -49.192093 14.323812 12.428252 12.839033 -35.863281 32.292049 29.632328 -47.779213 23.601429 2.207704 36.354771 -5.968547 -0.166459 -9.080681 -1.229843 -9.276849 -28.760496 -52.538719 -28.632647 34.333981 13.190187 7.322770 -5.615264 6.953053 26.213184 
11.625897 6.724874 -47.018669 37.814495 -103.830353 -111.061386 0.000000 0.000000 0.000000 11.577127 5.482561 -0.723963 -8.603516 0.000000 0.000000 41.325275 11.449007 -22.428524 -2.957607 -0.090307 -0.002318 16.981869 -27.456169 -105.519592 -4.998156 -8.684579 26.589849 46.722393 -4.741352 4.424747 2.957607 0.090307 -0.002334 -30.850828 -18.899101 -46.338463 14.196074 11.392492 11.995438 -34.370445 31.473980 28.240562 -44.601055 24.789841 2.535480 37.444550 -6.085145 -0.137863 -9.184106 0.095728 -9.075813 -25.400673 -51.005802 -29.546780 34.501335 13.301428 7.227674 -6.132670 6.732409 26.048149 
11.654337 6.665158 -46.967453 41.035694 -102.612549 -115.470032 0.000000 0.000000 0.000000 10.403456 5.129577 -0.133188 -8.603516 0.000000 0.000000 42.752018 11.300007 -22.116453 -2.957607 -0.090307 -0.002318 15.659575 -27.202940 -102.142838 -5.881705 -9.125492 26.425501 46.573273 -5.400959 3.794282 2.957607 0.090307 -0.002334 -29.194876 -17.411705 -43.455494 13.829542 10.555778 11.069409 -32.160347 30.625841 26.975491 -40.609997 25.621439 2.922903 37.075466 -6.515213 0.083921 -9.175849 1.122740 -8.882071 -21.222748 -49.398544 -30.510513 34.048710 13.439992 6.912587 -6.654604 6.452226 25.983728 
11.668613 6.733476 -47.013000 44.551304 -101.664513 -119.880707 0.000000 0.000000 0.000000 9.575399 4.834368 0.297331 -8.603516 0.000000 0.000000 44.275959 11.202497 -21.708872 -2.957607 -0.090307 -0.002318 14.316642 -26.772392 -98.687424 -7.079072 -9.676091 26.222502 46.435200 -6.187049 3.085034 2.957607 0.090307 -0.002334 -27.379194 -15.714730 -41.605812 13.558828 10.037432 10.615844 -30.339428 29.695337 26.238478 -36.128426 25.963404 3.272978 35.562382 -7.022860 0.467252 -9.535230 1.940466 -8.931656 -16.475843 -47.878296 -31.519373 32.788559 13.674100 6.167110 -7.024683 6.093593 25.965858 
11.637341 6.670823 -46.987396 -130.482422 -79.213623 53.796108 0.000000 0.000000 0.000000 8.854088 4.371318 1.051597 -8.603516 0.000000 0.000000 45.483913 10.867362 -21.479013 -2.957607 -0.090307 -0.002318 12.551998 -26.288330 -93.582344 -8.623717 -10.354043 25.728802 46.458603 -6.684931 1.507255 2.957607 0.090307 -0.002334 -26.543325 -15.043109 -39.316750 13.049870 10.301372 9.802119 -29.007605 29.518589 25.720072 -31.263866 25.766434 3.668102 32.921757 -7.353628 1.029314 -10.109372 2.650885 -9.374974 -11.106228 -46.235016 -32.184658 30.043295 13.888579 4.870524 -7.984589 5.453033 25.848450 
